<svg width="195" height="213" fill="none" xmlns="http://www.w3.org/2000/svg"><g clip-path="url(#a)" fill="#101010"><path d="M21.776 137.364h-6.009a4.063 4.063 0 0 0-.34-1.353 3.05 3.05 0 0 0-.747-1.044 3.098 3.098 0 0 0-1.14-.682c-.447-.164-.955-.245-1.523-.245-.994 0-1.836.241-2.525.724-.682.483-1.2 1.176-1.555 2.078-.348.902-.522 1.985-.522 3.249 0 1.335.177 2.454.532 3.356.363.895.885 1.569 1.566 2.024.682.447 1.503.671 2.461.671.547 0 1.037-.067 1.47-.202.434-.142.81-.345 1.13-.608.32-.262.579-.578.778-.948.205-.376.344-.799.415-1.268l6.009.043c-.072.923-.33 1.864-.778 2.823-.448.952-1.083 1.833-1.907 2.642-.817.803-1.829 1.449-3.036 1.939-1.208.49-2.61.735-4.208.735-2.003 0-3.8-.429-5.391-1.289-1.584-.859-2.837-2.123-3.76-3.792-.917-1.669-1.375-3.711-1.375-6.126 0-2.429.469-4.475 1.406-6.136.938-1.669 2.202-2.93 3.793-3.782 1.59-.86 3.366-1.289 5.327-1.289 1.377 0 2.645.188 3.803.564 1.158.377 2.173.927 3.047 1.651a8.165 8.165 0 0 1 2.11 2.653c.532 1.051.855 2.255.969 3.612zM24.463 151v-21.818h5.923v8.523h7.841v-8.523h5.923V151h-5.923v-8.523h-7.84V151h-5.924zm28.167 0h-6.392l7.202-21.818h8.097L68.739 151h-6.393l-4.772-15.81h-.17L52.63 151zm-1.193-8.608h12.017v4.432H51.437v-4.432zM70.84 151v-21.818h9.417c1.62 0 3.037.295 4.251.884 1.215.59 2.16 1.438 2.834 2.546.675 1.108 1.012 2.436 1.012 3.985 0 1.562-.348 2.88-1.044 3.952-.689 1.072-1.658 1.882-2.908 2.429-1.243.547-2.696.82-4.358.82H74.42v-4.602h4.432c.696 0 1.29-.085 1.78-.256.496-.177.876-.458 1.14-.841.27-.384.404-.885.404-1.502 0-.625-.135-1.133-.405-1.524-.263-.398-.642-.689-1.14-.873-.49-.192-1.083-.288-1.779-.288h-2.088V151H70.84zm12.784-10.014L89.079 151h-6.435l-5.327-10.014h6.307zM96.546 151h-6.392l7.202-21.818h8.097L112.654 151h-6.392l-4.772-15.81h-.171L96.546 151zm-1.193-8.608h12.017v4.432H95.353v-4.432zm38.747-5.028h-6.009a4.042 4.042 0 0 0-.341-1.353 3.05 3.05 0 0 0-.745-1.044 3.106 3.106 0 0 0-1.14-.682 4.414 4.414 0 0 0-1.524-.245c-.994 0-1.836.241-2.525.724-.681.483-1.2 1.176-1.555 2.078-.348.902-.522 1.985-.522 3.249 0 1.335.178 2.454.533 3.356.362.895.884 1.569 1.566 2.024.682.447 1.502.671 2.461.671.547 0 1.037-.067 1.47-.202a3.451 3.451 0 0 0 1.129-.608c.32-.262.579-.578.778-.948a3.8 3.8 0 0 0 .415-1.268l6.009.043c-.071.923-.33 1.864-.778 2.823-.447.952-1.083 1.833-1.907 2.642-.817.803-1.829 1.449-3.036 1.939s-2.61.735-4.208.735c-2.003 0-3.8-.429-5.391-1.289-1.584-.859-2.837-2.123-3.76-3.792-.917-1.669-1.375-3.711-1.375-6.126 0-2.429.469-4.475 1.406-6.136.938-1.669 2.202-2.93 3.793-3.782 1.591-.86 3.367-1.289 5.327-1.289 1.378 0 2.645.188 3.803.564 1.158.377 2.173.927 3.047 1.651a8.15 8.15 0 0 1 2.109 2.653c.533 1.051.856 2.255.97 3.612zm2.091-3.409v-4.773h18.963v4.773h-6.563V151h-5.838v-17.045h-6.562zM157.383 151v-21.818h15.724v4.773h-9.801v3.75h8.992v4.772h-8.992v3.75h9.759V151h-15.682zm18.662 0v-21.818h9.418c1.619 0 3.036.295 4.25.884 1.215.59 2.159 1.438 2.834 2.546.675 1.108 1.012 2.436 1.012 3.985 0 1.562-.348 2.88-1.044 3.952-.689 1.072-1.658 1.882-2.908 2.429-1.243.547-2.696.82-4.358.82h-5.625v-4.602h4.432c.696 0 1.289-.085 1.779-.256.498-.177.878-.458 1.14-.841.27-.384.405-.885.405-1.502 0-.625-.135-1.133-.405-1.524-.262-.398-.642-.689-1.14-.873-.49-.192-1.083-.288-1.779-.288h-2.088V151h-5.923zm12.784-10.014L194.284 151h-6.435l-5.327-10.014h6.307zM29.5 210c3.77 3.5 9 3.5 9 3.5H169v-53H25V200s-.346 5.5 4.5 10z"/><path fill-rule="evenodd" clip-rule="evenodd" d="M96 0C25 0 25 74 25 74h50.5V40s.25-6 5.5-6 5.25 6 5.25 6v34h21.25V40s.5-6 5-6 4.5 6 4.5 6v34h52s0-74-73-74z"/><path d="M7.344 122V85.636H33.55v7.955H17.216v6.25h14.986v7.954H17.216v6.25H33.48V122H7.344zm31.103-36.364h12.287l8.452 20.597h.426l8.452-20.597H80.35V122h-9.66v-21.023h-.284l-8.096 20.739h-5.824l-8.097-20.881h-.284V122h-9.659V85.636zM85.03 122V85.636h15.696c2.699 0 5.061.533 7.085 1.598 2.024 1.066 3.598 2.563 4.723 4.493 1.124 1.929 1.687 4.184 1.687 6.764 0 2.605-.58 4.86-1.74 6.765-1.149 1.906-2.764 3.374-4.848 4.404-2.071 1.03-4.492 1.545-7.262 1.545h-9.375v-7.671h7.387c1.16 0 2.148-.201 2.965-.604.828-.414 1.462-1 1.9-1.757.449-.758.674-1.652.674-2.681 0-1.042-.225-1.93-.674-2.664-.438-.746-1.072-1.314-1.9-1.704-.817-.403-1.805-.604-2.965-.604h-3.48V122h-9.873zm31.818-28.41v-7.954h31.606v7.955h-10.938V122h-9.73V93.59h-10.938zm33.829-7.954h11.009l7.102 14.773h.284l7.103-14.773h11.008l-13.352 24.929V122h-9.801v-11.435l-13.353-24.929z"/></g><defs><clipPath id="a"><path fill="#fff" d="M0 0h195v213H0z"/></clipPath></defs></svg>